HIERARCHY
ROOT Hips
{
	OFFSET 0.000000 0.000000 0.000000
	CHANNELS 6 Xposition Yposition Zposition Zrotation Yrotation Xrotation 
	JOINT LHipJoint
	{
		OFFSET 0.000000 0.000000 0.000000
		CHANNELS 3 Zrotation Yrotation Xrotation
		JOINT LeftUpLeg
		{
			OFFSET 1.363060 -1.794630 0.839290
			CHANNELS 3 Zrotation Yrotation Xrotation
			JOINT LeftLeg
			{
				OFFSET 2.448110 -6.726130 0.000000
				CHANNELS 3 Zrotation Yrotation Xrotation
				JOINT LeftFoot
				{
					OFFSET 2.562200 -7.039590 0.000000
					CHANNELS 3 Zrotation Yrotation Xrotation
					JOINT LeftToeBase
					{
						OFFSET 0.157640 -0.433110 2.322550
						CHANNELS 3 Zrotation Yrotation Xrotation
						End Site
						{
							OFFSET 0.000000 0.000000 0.000000
						}
					}
				}
			}
		}
	}
	JOINT RHipJoint
	{
		OFFSET 0.000000 0.000000 0.000000
		CHANNELS 3 Zrotation Yrotation Xrotation
		JOINT RightUpLeg
		{
			OFFSET -1.305520 -1.794630 0.839290
			CHANNELS 3 Zrotation Yrotation Xrotation
			JOINT RightLeg
			{
				OFFSET -2.542530 -6.985550 0.000000
				CHANNELS 3 Zrotation Yrotation Xrotation
				JOINT RightFoot
				{
					OFFSET -2.568260 -7.056230 0.000000
					CHANNELS 3 Zrotation Yrotation Xrotation
					JOINT RightToeBase
					{
						OFFSET -0.164730 -0.452590 2.363150
						CHANNELS 3 Zrotation Yrotation Xrotation
						End Site
						{
							OFFSET 0.000000 0.000000 0.000000
						}
					}
				}
			}
		}
	}
	JOINT LowerBack
	{
		OFFSET 0.000000 0.000000 0.000000
		CHANNELS 3 Zrotation Yrotation Xrotation
		JOINT Spine
		{
			OFFSET 0.028270 2.035590 -0.193380
			CHANNELS 3 Zrotation Yrotation Xrotation
			JOINT Spine1
			{
				OFFSET 0.056720 2.048850 -0.042750
				CHANNELS 3 Zrotation Yrotation Xrotation
				JOINT Neck
				{
					OFFSET 0.000000 0.000000 0.000000
					CHANNELS 3 Zrotation Yrotation Xrotation
					JOINT Neck1
					{
						OFFSET -0.054170 1.746240 0.172020
						CHANNELS 3 Zrotation Yrotation Xrotation
						JOINT Head
						{
							OFFSET 0.104070 1.761360 -0.123970
							CHANNELS 3 Zrotation Yrotation Xrotation
							End Site
							{
								OFFSET 0.000000 0.000000 0.000000
							}
						}
					}
				}
				JOINT LeftShoulder
				{
					OFFSET 0.000000 0.000000 0.000000
					CHANNELS 3 Zrotation Yrotation Xrotation
					JOINT LeftArm
					{
						OFFSET 3.362410 1.200890 -0.311210
						CHANNELS 3 Zrotation Yrotation Xrotation
						JOINT LeftForeArm
						{
							OFFSET 4.983000 -0.000000 -0.000000
							CHANNELS 3 Zrotation Yrotation Xrotation
							JOINT LeftHand
							{
								OFFSET 3.483560 -0.000000 -0.000000
								CHANNELS 3 Zrotation Yrotation Xrotation
								JOINT LeftFingerBase
								{
									OFFSET 0.000000 0.000000 0.000000
									CHANNELS 3 Zrotation Yrotation Xrotation
									JOINT LeftHandIndex1
									{
										OFFSET 0.715260 -0.000000 -0.000000
										CHANNELS 3 Zrotation Yrotation Xrotation
										End Site
										{
											OFFSET 0.000000 0.000000 0.000000
										}
									}
								}
								JOINT LThumb
								{
									OFFSET 0.000000 0.000000 0.000000
									CHANNELS 3 Zrotation Yrotation Xrotation
									End Site
									{
										OFFSET 0.000000 0.000000 0.000000
									}
								}
							}
						}
					}
				}
				JOINT RightShoulder
				{
					OFFSET 0.000000 0.000000 0.000000
					CHANNELS 3 Zrotation Yrotation Xrotation
					JOINT RightArm
					{
						OFFSET -3.136600 1.374050 -0.404650
						CHANNELS 3 Zrotation Yrotation Xrotation
						JOINT RightForeArm
						{
							OFFSET -5.241900 -0.000000 -0.000000
							CHANNELS 3 Zrotation Yrotation Xrotation
							JOINT RightHand
							{
								OFFSET -3.444170 -0.000000 -0.000000
								CHANNELS 3 Zrotation Yrotation Xrotation
								JOINT RightFingerBase
								{
									OFFSET 0.000000 0.000000 0.000000
									CHANNELS 3 Zrotation Yrotation Xrotation
									JOINT RightHandIndex1
									{
										OFFSET -0.622530 -0.000000 -0.000000
										CHANNELS 3 Zrotation Yrotation Xrotation
										End Site
										{
											OFFSET 0.000000 0.000000 0.000000
										}
									}
								}
								JOINT RThumb
								{
									OFFSET 0.000000 0.000000 0.000000
									CHANNELS 3 Zrotation Yrotation Xrotation
									End Site
									{
										OFFSET 0.000000 0.000000 0.000000
									}
								}
							}
						}
					}
				}
			}
		}
	}
}
MOTION
Frames: 6
Frame Time: 0.033333
-0.457731 16.017387 -15.879794 87.053679 -19.714812 -36.636102 -90.841881 -46.527521 56.536068 11.022434 19.747365 -55.105080 -82.324811 62.933009 -70.784950 22.493212 13.608642 4.636035 -0.115201 0.003943 -28.326013 35.435175 -6.454137 -103.163001 38.189401 -36.596238 -106.801647 117.029874 -55.655192 -120.576591 47.976206 -7.161190 -14.365200 0.235897 -0.012233 -68.403425 -131.646477 64.937757 -53.581518 -175.663447 68.609985 -173.680677 -136.974273 65.494685 -148.859758 21.226959 8.105759 13.170608 8.897356 5.217167 -3.259255 0.001575 -0.074395 0.049406 126.217070 52.176409 35.284600 66.491638 67.464490 46.974001 -8.084226 31.262283 -114.467633 7.792706 -14.937535 59.700866 -18.173255 -5.568488 -10.585807 -0.079105 -0.042704 0.035926 0.022425 0.033731 -0.057316 50.345859 67.671244 77.781296 32.077653 44.547040 137.599257 -24.130826 -38.148118 105.196360 6.164076 52.700500 -2.826592 -2.119970 -15.025126 -5.453823 -0.097290 0.049920 -0.060004 -0.016320 -0.090814 -0.030210 
-0.501231 15.472809 -15.091331 86.578634 -19.746432 -35.088522 -87.873534 -46.532956 56.025130 7.179936 16.188669 -58.687027 -87.068356 63.539041 -76.471612 25.088098 8.005434 -5.390954 -0.448289 0.047215 -28.154181 35.530560 -6.222896 -101.910561 39.347267 -37.317093 -107.731092 123.397165 -51.473532 -115.816376 48.666652 -10.421957 -20.596999 -0.010688 -0.112542 -69.160286 -131.223061 64.931195 -52.446322 -178.477496 70.258542 -176.738163 -140.991250 64.604119 -152.451939 22.050592 -0.469606 13.777060 10.583595 7.967294 -2.627015 0.069004 -0.050229 0.093095 119.884020 55.548133 30.775858 68.158409 67.076410 46.215306 -12.571271 36.573638 -115.716473 6.756862 8.466411 91.847245 -17.581698 -7.214640 -8.748578 -0.074306 -0.060354 0.039204 0.003289 0.096008 -0.025432 47.385138 62.957429 73.318404 40.203992 43.217998 147.105307 -13.534767 -38.879882 103.564749 6.613435 42.559581 5.538805 -3.050753 -7.379454 5.431935 -0.052904 0.022681 -0.085060 -0.056533 -0.082833 -0.045858 
-0.518940 15.101697 -14.344425 85.596607 -19.376657 -34.232961 -84.769538 -46.681407 55.498994 4.141931 12.692058 -62.604853 -89.276494 68.927215 -74.470033 18.599483 10.441287 -15.438133 -1.217042 0.042203 -29.418073 35.716725 -9.563276 -101.305349 43.787656 -38.589483 -107.813823 120.022349 -50.609799 -104.727873 42.181686 -5.885235 -37.213797 -0.296971 -0.202323 -65.100839 -128.948086 64.981978 -49.272593 179.360733 69.862154 -179.219972 -142.157667 65.585627 -152.984734 23.050029 -1.194389 12.786233 10.210640 5.391002 2.261455 0.086086 -0.011472 0.023724 114.774563 56.983770 27.414979 65.177034 70.339868 41.419496 -10.034535 37.784933 -113.349658 14.230487 24.584378 104.718835 -13.358131 -7.507319 -8.135028 -0.080492 -0.063578 0.044016 0.003158 0.065892 -0.026788 45.911088 60.307219 70.404022 49.950104 39.938881 156.367401 -9.888796 -37.333886 99.506236 16.891561 40.634907 17.666246 8.493512 6.444526 13.291791 0.007074 0.018732 -0.001110 0.002242 -0.086708 -0.041073 
-0.487454 14.929738 -13.604039 85.422105 -18.945205 -34.090580 -84.860806 -45.487102 54.797772 6.681085 10.062223 -62.476706 -91.947627 72.891384 -73.671143 5.458298 12.641745 -22.471766 -1.747514 0.039722 -31.098700 34.844934 -11.959654 -101.632260 50.301993 -39.932278 -108.614700 110.739336 -47.658920 -93.845848 24.567081 -14.808190 -36.071009 -0.567678 -0.170931 -59.362866 -127.642881 65.636320 -47.626991 178.342385 70.362936 179.809652 -144.326232 66.409572 -153.833345 17.881196 0.813645 6.752984 13.384925 0.768160 3.898238 0.054307 -0.100424 0.037649 113.354694 57.757337 23.736352 57.551401 73.459654 32.388841 -3.867352 38.929371 -116.376430 21.638106 28.712438 81.292489 -14.225384 -19.448047 -14.111847 -0.057388 -0.000090 0.028847 0.056131 -0.014096 -0.033067 45.261636 59.641262 68.784358 56.089208 36.218225 163.400110 -11.137504 -34.967011 92.678862 31.576000 40.833639 26.362279 25.992967 13.460606 24.754451 -0.051865 0.038814 -0.027653 -0.088610 0.020714 -0.043732 
-0.441748 14.925809 -12.845092 86.208613 -19.120247 -33.848375 -83.525649 -45.847885 53.642122 5.812355 8.279483 -64.069574 -83.716191 75.818149 -62.817050 -0.406900 12.459518 -22.736593 -1.851399 0.018767 -30.725619 35.575489 -11.918702 -102.896976 56.756207 -43.485352 -108.070743 109.121560 -42.016050 -84.314487 6.706422 -33.825426 -22.994425 -0.378026 -0.185055 -53.437610 -122.611571 63.518380 -41.948822 179.401381 69.914871 -176.059661 -142.324279 66.117102 -150.162608 14.315361 8.889268 8.876582 16.509363 2.041171 -0.328669 -0.016510 0.041345 0.048354 116.083631 59.558842 24.805957 45.569170 74.924007 21.589203 -7.715444 37.787740 -125.545814 8.974910 29.369628 45.780429 -15.143973 -27.353672 -19.175944 -0.010774 -0.060336 0.067949 0.067419 0.062413 -0.024579 46.723925 60.506432 72.286108 56.532769 35.083792 165.773738 -13.216393 -32.110748 86.561268 36.977364 33.517292 37.405948 29.901513 24.859164 24.665588 -0.022051 0.038139 -0.005154 0.018229 -0.081518 -0.075344 
-0.418455 15.090641 -12.066052 87.691095 -18.133031 -35.228733 -84.934755 -44.631174 53.969607 4.502787 7.995384 -62.915058 -80.645523 73.437773 -57.265303 2.818235 12.604051 -21.861734 -1.698217 -0.040518 -30.939834 35.993320 -10.945410 -103.408543 60.467724 -47.319574 -106.495055 111.384642 -35.463501 -78.042273 -7.479002 -40.749641 -12.026213 -0.126803 -0.177901 -48.620675 -120.644887 61.802031 -38.532479 179.952348 69.473319 -175.027407 -148.231525 67.723113 -154.066621 10.884219 13.607927 6.614649 15.549745 0.095749 1.883446 0.064309 -0.087074 0.005918 117.951960 61.839416 26.767686 34.648786 75.206589 10.454574 -14.304738 33.285285 -130.351820 11.325894 29.174041 23.509990 -21.275219 -27.007111 -23.494460 -0.046720 -0.013850 0.028675 0.050516 -0.013679 -0.066638 51.754694 61.836057 78.487099 55.654491 31.447529 166.920871 -14.440235 -27.586674 82.591591 32.879626 20.562909 33.285742 12.869566 28.550889 3.325657 -0.014008 0.077122 -0.064978 -0.025158 -0.025490 0.044796 
